<svg width="819.600048828125px" height="124.439990234375px" xmlns="http://www.w3.org/2000/svg" viewBox="-159.80002441406248 12.780004882812499 819.600048828125 124.439990234375" style="background: rgba(0, 0, 0, 0) none repeat scroll 0% 0%;" preserveAspectRatio="xMidYMid"><defs><filter id="editing-extrusion" x="-100%" y="-100%" width="300%" height="300%"><feFlood result="color1" flood-color="#444"></feFlood><feConvolveMatrix order="8,8" divisor="1" kernelMatrix="1 0 0 0 0 0 0 0 0 1 0 0 0 0 0 0 0 0 1 0 0 0 0 0 0 0 0 1 0 0 0 0 0 0 0 0 1 0 0 0 0 0 0 0 0 1 0 0 0 0 0 0 0 0 1 0 0 0 0 0 0 0 0 1" in="SourceAlpha" result="extrude"></feConvolveMatrix><feComposite in="color1" in2="extrude" result="comp-extrude" operator="in"></feComposite><feOffset dx="4" dy="4" in="comp-extrude" result="offset-extrude"></feOffset><feMerge><feMergeNode in="offset-extrude"></feMergeNode><feMergeNode in="SourceGraphic"></feMergeNode></feMerge></filter></defs><g filter="url(#editing-extrusion)"><g transform="translate(-41.4257926940918, 99)"><path d="M42.62-26.56L42.62-26.56L42.62-26.56Q42.62 0.70 13.06 0.70L13.06 0.70L13.06 0.70Q8.32 0.70 0.51-0.45L0.51-0.45L7.68-38.27L7.68-38.27Q8.19-40.83 8.51-42.30L8.51-42.30L8.51-42.30Q18.24-43.01 22.56-43.01L22.56-43.01L22.56-43.01Q26.88-43.01 30.85-42.11L30.85-42.11L30.85-42.11Q34.82-41.22 37.44-39.23L37.44-39.23L37.44-39.23Q42.62-35.33 42.62-26.56ZM29.44-28.93L29.44-28.93L29.44-28.93Q29.44-38.46 22.59-38.46L22.59-38.46L21.95-38.46L21.95-38.46Q21.63-38.46 21.31-38.40L21.31-38.40L14.72-4.03L14.72-4.03Q14.98-3.90 15.23-3.90L15.23-3.90L15.74-3.90L15.74-3.90Q18.11-3.90 20.58-5.38L20.58-5.38L20.58-5.38Q23.04-6.85 24.96-9.86L24.96-9.86L24.96-9.86Q29.44-16.83 29.44-28.93ZM48.67-1.92L48.67-1.92L48.67-1.92Q47.17-3.58 46.50-6.21L46.50-6.21L46.50-6.21Q45.82-8.83 45.82-13.12L45.82-13.12L45.82-13.12Q45.82-17.41 47.30-21.31L47.30-21.31L47.30-21.31Q48.77-25.22 51.46-28.03L51.46-28.03L51.46-28.03Q56.96-33.92 66.05-33.92L66.05-33.92L66.05-33.92Q69.31-33.92 71.68-32.83L71.68-32.83L82.62-33.92L77.89-8.96L77.89-8.96Q77.70-8.19 77.70-6.78L77.70-6.78L77.70-6.78Q77.70-5.38 78.56-4.48L78.56-4.48L78.56-4.48Q79.42-3.58 80.70-3.46L80.70-3.46L80.70-3.46Q80.06-1.28 77.73 0L77.73 0L77.73 0Q75.39 1.28 72.77 1.28L72.77 1.28L72.77 1.28Q70.14 1.28 68.38 0.29L68.38 0.29L68.38 0.29Q66.62-0.70 66.11-2.37L66.11-2.37L66.11-2.37Q65.09-0.77 62.91 0.26L62.91 0.26L62.91 0.26Q60.74 1.28 57.82 1.28L57.82 1.28L57.82 1.28Q54.91 1.28 52.54 0.51L52.54 0.51L52.54 0.51Q50.18-0.26 48.67-1.92ZM62.18-27.90L62.18-27.90L62.18-27.90Q61.44-26.75 60.80-24.80L60.80-24.80L60.80-24.80Q60.16-22.85 59.10-17.63L59.10-17.63L59.10-17.63Q58.05-12.42 58.05-8.70L58.05-8.70L58.05-8.70Q58.05-4.99 58.62-3.90L58.62-3.90L58.62-3.90Q59.20-2.82 60.22-2.82L60.22-2.82L60.22-2.82Q62.27-2.82 63.78-4.77L63.78-4.77L63.78-4.77Q65.28-6.72 65.86-10.18L65.86-10.18L69.25-28.93L69.25-28.93Q67.90-30.08 66.34-30.08L66.34-30.08L66.34-30.08Q64.77-30.08 63.84-29.57L63.84-29.57L63.84-29.57Q62.91-29.06 62.18-27.90ZM109.31-31.55L109.31-31.55L109.31-31.55Q111.42-33.92 115.07-33.92L115.07-33.92L115.07-33.92Q117.31-33.92 119.04-32.70L119.04-32.70L119.04-32.70Q120.77-31.49 120.77-29.22L120.77-29.22L120.77-29.22Q120.77-26.94 120.06-24.51L120.06-24.51L120.06-24.51Q119.36-22.08 118.27-19.58L118.27-19.58L118.27-19.58Q116.10-14.72 113.09-10.69L113.09-10.69L113.09-10.69Q108.86-4.86 104.80-1.79L104.80-1.79L104.80-1.79Q100.74 1.28 96.32 1.28L96.32 1.28L96.32 1.28Q92.74 1.28 90.56 0.45L90.56 0.45L90.56 0.45Q90.18-12.99 89.70-17.79L89.70-17.79L89.70-17.79Q89.22-22.59 88.83-25.22L88.83-25.22L88.83-25.22Q88.19-30.34 86.27-31.55L86.27-31.55L86.27-31.55Q87.74-32.83 89.18-33.38L89.18-33.38L89.18-33.38Q90.62-33.92 93.60-33.92L93.60-33.92L93.60-33.92Q96.58-33.92 98.69-31.58L98.69-31.58L98.69-31.58Q100.80-29.25 101.22-25.12L101.22-25.12L101.22-25.12Q101.63-20.99 101.63-16L101.63-16L101.63-16Q101.63-11.01 101.25-4.99L101.25-4.99L101.25-4.99Q103.23-6.40 105.34-10.69L105.34-10.69L105.34-10.69Q108.22-16.64 109.25-23.81L109.25-23.81L109.25-23.81Q109.57-25.98 109.57-28.29L109.57-28.29L109.57-28.29Q109.57-30.59 109.31-31.55ZM137.86-3.52L137.86-3.52L137.86-3.52Q135.87 1.28 129.54 1.28L129.54 1.28L129.54 1.28Q126.27 1.28 124.22-0.96L124.22-0.96L124.22-0.96Q122.50-2.94 122.50-4.93L122.50-4.93L122.50-4.93Q122.50-10.11 124.86-20.22L124.86-20.22L127.23-32.64L140.22-33.92L136.32-13.70L136.32-13.70Q135.23-8.96 135.23-7.30L135.23-7.30L135.23-7.30Q135.23-3.65 137.86-3.52ZM128.38-41.54L128.38-41.54L128.38-41.54Q128.38-44.03 130.46-45.38L130.46-45.38L130.46-45.38Q132.54-46.72 135.55-46.72L135.55-46.72L135.55-46.72Q138.56-46.72 140.38-45.38L140.38-45.38L140.38-45.38Q142.21-44.03 142.21-41.54L142.21-41.54L142.21-41.54Q142.21-39.04 140.19-37.76L140.19-37.76L140.19-37.76Q138.18-36.48 135.17-36.48L135.17-36.48L135.17-36.48Q132.16-36.48 130.27-37.76L130.27-37.76L130.27-37.76Q128.38-39.04 128.38-41.54ZM163.46-33.92L163.46-33.92L163.46-33.92Q165.76-33.92 167.55-33.41L167.55-33.41L167.55-33.41Q167.62-33.66 167.74-34.37L167.74-34.37L168.06-36.35L168.06-36.35Q168.32-37.63 168.70-39.74L168.70-39.74L169.73-44.80L182.46-46.08L175.36-8.96L175.36-8.96Q175.30-8.58 175.30-7.94L175.30-7.94L175.30-6.91L175.30-6.91Q175.30-5.50 176.00-4.45L176.00-4.45L176.00-4.45Q176.70-3.39 177.86-3.39L177.86-3.39L177.86-3.39Q176.58-0.38 172.67 0.90L172.67 0.90L172.67 0.90Q171.33 1.28 169.44 1.28L169.44 1.28L169.44 1.28Q167.55 1.28 165.82 0.29L165.82 0.29L165.82 0.29Q164.10-0.70 163.58-2.37L163.58-2.37L163.58-2.37Q162.56-0.70 160.51 0.29L160.51 0.29L160.51 0.29Q158.46 1.28 155.49 1.28L155.49 1.28L155.49 1.28Q152.51 1.28 150.05 0.51L150.05 0.51L150.05 0.51Q147.58-0.26 146.05-1.92L146.05-1.92L146.05-1.92Q143.23-5.18 143.23-12.61L143.23-12.61L143.23-12.61Q143.23-22.21 148.86-28.03L148.86-28.03L148.86-28.03Q154.50-33.92 163.46-33.92ZM163.01-30.08L163.01-30.08L163.01-30.08Q160.64-30.08 159.36-27.52L159.36-27.52L159.36-27.52Q158.08-24.96 156.77-18.62L156.77-18.62L156.77-18.62Q155.46-12.29 155.46-6.59L155.46-6.59L155.46-6.59Q155.46-2.69 157.76-2.69L157.76-2.69L157.76-2.69Q159.81-2.69 161.25-4.74L161.25-4.74L161.25-4.74Q162.69-6.78 163.26-10.18L163.26-10.18L166.72-28.93L166.72-28.93Q165.38-30.08 163.01-30.08ZM209.73 0L195.78 0L203.90-42.24L217.98-42.24L209.73 0ZM234.69-3.52L234.69-3.52L234.69-3.52Q232.70 1.28 226.37 1.28L226.37 1.28L226.37 1.28Q223.17 1.28 221.12-0.96L221.12-0.96L221.12-0.96Q219.46-2.82 219.46-4.93L219.46-4.93L219.46-4.93Q219.46-9.73 221.70-20.22L221.70-20.22L226.37-44.80L239.36-46.08L233.15-13.70L233.15-13.70Q232.06-8.96 232.06-7.30L232.06-7.30L232.06-7.30Q232.06-3.65 234.69-3.52ZM255.49-3.52L255.49-3.52L255.49-3.52Q253.50 1.28 247.17 1.28L247.17 1.28L247.17 1.28Q243.90 1.28 241.86-0.96L241.86-0.96L241.86-0.96Q240.13-2.94 240.13-4.93L240.13-4.93L240.13-4.93Q240.13-10.11 242.50-20.22L242.50-20.22L244.86-32.64L257.86-33.92L253.95-13.70L253.95-13.70Q252.86-8.96 252.86-7.30L252.86-7.30L252.86-7.30Q252.86-3.65 255.49-3.52ZM246.02-41.54L246.02-41.54L246.02-41.54Q246.02-44.03 248.10-45.38L248.10-45.38L248.10-45.38Q250.18-46.72 253.18-46.72L253.18-46.72L253.18-46.72Q256.19-46.72 258.02-45.38L258.02-45.38L258.02-45.38Q259.84-44.03 259.84-41.54L259.84-41.54L259.84-41.54Q259.84-39.04 257.82-37.76L257.82-37.76L257.82-37.76Q255.81-36.48 252.80-36.48L252.80-36.48L252.80-36.48Q249.79-36.48 247.90-37.76L247.90-37.76L247.90-37.76Q246.02-39.04 246.02-41.54ZM286.85-10.82L286.85-10.82L286.85-10.82Q288.45-9.73 288.45-7.33L288.45-7.33L288.45-7.33Q288.45-4.93 287.23-3.39L287.23-3.39L287.23-3.39Q286.02-1.86 284.03-0.83L284.03-0.83L284.03-0.83Q279.94 1.28 275.52 1.28L275.52 1.28L275.52 1.28Q271.10 1.28 268.51 0.32L268.51 0.32L268.51 0.32Q265.92-0.64 264.19-2.43L264.19-2.43L264.19-2.43Q260.80-5.82 260.80-12.03L260.80-12.03L260.80-12.03Q260.80-21.70 266.05-27.58L266.05-27.58L266.05-27.58Q271.68-33.92 281.47-33.92L281.47-33.92L281.47-33.92Q287.55-33.92 290.56-31.36L290.56-31.36L290.56-31.36Q292.80-29.44 292.80-26.30L292.80-26.30L292.80-26.30Q292.80-15.04 273.34-15.04L273.34-15.04L273.34-15.04Q273.09-13.38 273.09-11.97L273.09-11.97L273.09-11.97Q273.09-9.02 274.40-7.90L274.40-7.90L274.40-7.90Q275.71-6.78 278.14-6.78L278.14-6.78L278.14-6.78Q280.58-6.78 283.17-7.90L283.17-7.90L283.17-7.90Q285.76-9.02 286.85-10.82ZM273.79-17.79L273.79-17.79L273.79-17.79Q278.34-17.79 280.96-20.61L280.96-20.61L280.96-20.61Q283.58-23.30 283.58-27.58L283.58-27.58L283.58-27.58Q283.58-29.06 283.04-29.86L283.04-29.86L283.04-29.86Q282.50-30.66 281.41-30.66L281.41-30.66L281.41-30.66Q280.32-30.66 279.39-30.24L279.39-30.24L279.39-30.24Q278.46-29.82 277.50-28.42L277.50-28.42L277.50-28.42Q275.14-25.22 273.79-17.79ZM333.18-42.69L333.18-42.69L333.18-42.69Q348.86-42.69 348.86-31.62L348.86-31.62L348.86-31.62Q348.86-25.54 344.96-21.89L344.96-21.89L344.96-21.89Q341.12-18.24 334.40-18.24L334.40-18.24L334.40-18.24Q331.26-18.24 328.83-20.03L328.83-20.03L328.83-20.03Q327.68-20.80 326.91-21.82L326.91-21.82L326.91-21.82Q331.58-21.82 334.05-24.67L334.05-24.67L334.05-24.67Q336.51-27.52 336.51-33.09L336.51-33.09L336.51-33.09Q336.51-38.66 331.01-38.66L331.01-38.66L329.47-38.66L329.47-38.66Q329.09-38.66 328.77-38.59L328.77-38.59L321.41 0L307.52 0L315.39-41.92L315.39-41.92Q322.24-42.56 326.21-42.62L326.21-42.62L326.21-42.62Q330.18-42.69 333.18-42.69ZM364.48-3.52L364.48-3.52L364.48-3.52Q362.50 1.28 356.16 1.28L356.16 1.28L356.16 1.28Q352.96 1.28 350.91-0.96L350.91-0.96L350.91-0.96Q349.25-2.82 349.25-4.93L349.25-4.93L349.25-4.93Q349.25-9.73 351.49-20.22L351.49-20.22L356.16-44.80L369.15-46.08L362.94-13.70L362.94-13.70Q361.86-8.96 361.86-7.30L361.86-7.30L361.86-7.30Q361.86-3.65 364.48-3.52ZM372.70-1.92L372.70-1.92L372.70-1.92Q371.20-3.58 370.53-6.21L370.53-6.21L370.53-6.21Q369.86-8.83 369.86-13.12L369.86-13.12L369.86-13.12Q369.86-17.41 371.33-21.31L371.33-21.31L371.33-21.31Q372.80-25.22 375.49-28.03L375.49-28.03L375.49-28.03Q380.99-33.92 390.08-33.92L390.08-33.92L390.08-33.92Q393.34-33.92 395.71-32.83L395.71-32.83L406.66-33.92L401.92-8.96L401.92-8.96Q401.73-8.19 401.73-6.78L401.73-6.78L401.73-6.78Q401.73-5.38 402.59-4.48L402.59-4.48L402.59-4.48Q403.46-3.58 404.74-3.46L404.74-3.46L404.74-3.46Q404.10-1.28 401.76 0L401.76 0L401.76 0Q399.42 1.28 396.80 1.28L396.80 1.28L396.80 1.28Q394.18 1.28 392.42 0.29L392.42 0.29L392.42 0.29Q390.66-0.70 390.14-2.37L390.14-2.37L390.14-2.37Q389.12-0.77 386.94 0.26L386.94 0.26L386.94 0.26Q384.77 1.28 381.86 1.28L381.86 1.28L381.86 1.28Q378.94 1.28 376.58 0.51L376.58 0.51L376.58 0.51Q374.21-0.26 372.70-1.92ZM386.21-27.90L386.21-27.90L386.21-27.90Q385.47-26.75 384.83-24.80L384.83-24.80L384.83-24.80Q384.19-22.85 383.14-17.63L383.14-17.63L383.14-17.63Q382.08-12.42 382.08-8.70L382.08-8.70L382.08-8.70Q382.08-4.99 382.66-3.90L382.66-3.90L382.66-3.90Q383.23-2.82 384.26-2.82L384.26-2.82L384.26-2.82Q386.30-2.82 387.81-4.77L387.81-4.77L387.81-4.77Q389.31-6.72 389.89-10.18L389.89-10.18L393.28-28.93L393.28-28.93Q391.94-30.08 390.37-30.08L390.37-30.08L390.37-30.08Q388.80-30.08 387.87-29.57L387.87-29.57L387.87-29.57Q386.94-29.06 386.21-27.90ZM411.14-6.40L411.14-6.40L411.14-6.40Q411.14-8.13 412.03-12.48L412.03-12.48L415.42-29.76L411.65-29.76L411.90-31.68L411.90-31.68Q419.58-33.98 427.01-39.62L427.01-39.62L430.08-39.62L428.54-32.64L433.54-32.64L432.96-29.76L428.03-29.76L424.77-12.48L424.77-12.48Q423.94-8.51 423.94-7.17L423.94-7.17L423.94-7.17Q423.94-4.10 426.62-3.46L426.62-3.46L426.62-3.46Q425.98-1.28 423.68 0L423.68 0L423.68 0Q421.38 1.28 418.11 1.28L418.11 1.28L418.11 1.28Q414.85 1.28 412.99-0.77L412.99-0.77L412.99-0.77Q411.14-2.82 411.14-6.40ZM458.18-37.12L458.18-37.12L458.18-37.12Q459.07-38.66 459.07-40.32L459.07-40.32L459.07-40.32Q459.07-43.26 457.28-43.26L457.28-43.26L457.28-43.26Q454.53-43.26 453.38-37.63L453.38-37.63L452.42-32.64L458.24-32.64L457.86-29.76L451.84-29.76L446.08 0L433.15 1.28L439.30-29.76L434.75-29.76L435.33-32.64L439.81-32.64L441.15-37.70L441.15-37.70Q442.30-42.37 447.23-44.54L447.23-44.54L447.23-44.54Q450.82-46.08 456.83-46.08L456.83-46.08L456.83-46.08Q462.85-46.08 465.54-44.54L465.54-44.54L465.54-44.54Q468.22-43.01 468.22-40.96L468.22-40.96L468.22-40.96Q468.22-38.91 466.62-37.63L466.62-37.63L466.62-37.63Q465.02-36.35 463.23-36.35L463.23-36.35L463.23-36.35Q459.71-36.35 458.18-37.12ZM471.10 1.28L471.10 1.28L471.10 1.28Q457.02 1.28 457.02-11.97L457.02-11.97L457.02-11.97Q457.02-21.38 462.21-27.46L462.21-27.46L462.21-27.46Q467.71-33.92 477.25-33.92L477.25-33.92L477.25-33.92Q484.16-33.92 487.68-30.72L487.68-30.72L487.68-30.72Q491.20-27.52 491.20-20.80L491.20-20.80L491.20-20.80Q491.20-10.56 485.70-4.61L485.70-4.61L485.70-4.61Q480.32 1.28 471.10 1.28ZM472.77-26.56L472.77-26.56L472.77-26.56Q472-24.83 471.39-22.24L471.39-22.24L471.39-22.24Q470.78-19.65 470.02-15.55L470.02-15.55L470.02-15.55Q469.25-11.46 469.25-6.40L469.25-6.40L469.25-6.40Q469.25-4.74 469.79-3.65L469.79-3.65L469.79-3.65Q470.34-2.56 471.81-2.56L471.81-2.56L471.81-2.56Q473.28-2.56 474.21-3.26L474.21-3.26L474.21-3.26Q475.14-3.97 475.84-5.63L475.84-5.63L475.84-5.63Q477.12-8.58 478.14-14.05L478.14-14.05L478.14-14.05Q479.17-19.52 479.26-21.89L479.26-21.89L479.26-21.89Q479.36-24.26 479.36-26.02L479.36-26.02L479.36-26.02Q479.36-27.78 478.85-28.93L478.85-28.93L478.85-28.93Q478.34-30.08 476.90-30.08L476.90-30.08L476.90-30.08Q475.46-30.08 474.50-29.18L474.50-29.18L474.50-29.18Q473.54-28.29 472.77-26.56ZM515.01-17.98L515.01-17.98L515.01-17.98Q517.31-22.08 517.31-26.24L517.31-26.24L517.31-26.24Q517.31-28.99 515.33-28.99L515.33-28.99L515.33-28.99Q513.79-28.99 512.19-26.37L512.19-26.37L512.19-26.37Q510.53-23.74 510.02-20.35L510.02-20.35L506.69 0L493.44 1.28L499.97-32.64L510.53-33.92L509.38-27.46L509.38-27.46Q512.51-33.92 519.55-33.92L519.55-33.92L519.55-33.92Q523.26-33.92 525.28-32L525.28-32L525.28-32Q527.30-30.08 527.30-26.14L527.30-26.14L527.30-26.14Q527.30-22.21 524.70-19.71L524.70-19.71L524.70-19.71Q522.11-17.22 517.70-17.22L517.70-17.22L517.70-17.22Q515.78-17.22 515.01-17.98ZM574.40 1.28L574.40 1.28L574.40 1.28Q566.66 1.28 566.66-4.74L566.66-4.74L566.66-4.74Q566.66-7.36 567.78-12.45L567.78-12.45L567.78-12.45Q568.90-17.54 569.28-19.58L569.28-19.58L569.28-19.58Q570.18-24.26 570.18-25.73L570.18-25.73L570.18-25.73Q570.18-28.99 567.74-28.99L567.74-28.99L567.74-28.99Q566.14-28.99 564.61-26.78L564.61-26.78L564.61-26.78Q563.07-24.58 562.37-20.16L562.37-20.16L558.40 0L545.92 1.28L549.38-16.13L549.38-16.13Q549.95-19.01 550.46-22.27L550.46-22.27L550.46-22.27Q550.98-25.54 550.98-26.05L550.98-26.05L550.98-26.05Q550.98-28.99 548.80-28.99L548.80-28.99L548.80-28.99Q547.33-28.99 545.73-26.82L545.73-26.82L545.73-26.82Q544.13-24.64 543.23-20.16L543.23-20.16L539.33 0L526.72 1.28L533.44-32.64L543.87-33.92L542.78-27.46L542.78-27.46Q544.45-30.91 547.52-32.42L547.52-32.42L547.52-32.42Q550.59-33.92 555.39-33.92L555.39-33.92L555.39-33.92Q558.14-33.92 559.94-32.58L559.94-32.58L559.94-32.58Q561.73-31.23 562.30-29.06L562.30-29.06L562.30-29.06Q563.39-31.30 566.18-32.61L566.18-32.61L566.18-32.61Q568.96-33.92 572.38-33.92L572.38-33.92L572.38-33.92Q575.81-33.92 577.50-33.18L577.50-33.18L577.50-33.18Q579.20-32.45 580.22-31.23L580.22-31.23L580.22-31.23Q581.95-28.99 581.95-24.90L581.95-24.90L581.95-24.90Q581.95-20.86 580.22-12.48L580.22-12.48L580.22-12.48Q579.33-8.38 579.33-6.88L579.33-6.88L579.33-6.88Q579.33-5.38 580.19-4.48L580.19-4.48L580.19-4.48Q581.06-3.58 582.34-3.46L582.34-3.46L582.34-3.46Q581.70-1.28 579.49 0L579.49 0L579.49 0Q577.28 1.28 574.40 1.28Z" fill="#ccc"></path></g></g><style>text {
  font-size: 64px;
  font-family: Arial Black;
  dominant-baseline: central;
  text-anchor: middle;
}</style></svg>